<?xml version="1.0" encoding="utf-8"?>
<!-- Generator: Adobe Illustrator 25.4.1, SVG Export Plug-In . SVG Version: 6.00 Build 0)  -->
<svg version="1.1" id="Group_1_00000058585987145452070730000013676160768291204280_"
	 xmlns="http://www.w3.org/2000/svg" xmlns:xlink="http://www.w3.org/1999/xlink" x="0px" y="0px" viewBox="0 0 1008.5 1008.5"
	 style="enable-background:new 0 0 1008.5 1008.5;" xml:space="preserve">
<style type="text/css">
	.st0{fill:#FFFFFF;}
	.st1{fill:#FE00F5;}
	.st2{fill:#FED101;}
	.st3{fill:#0B43E0;}
</style>
<g id="Layer_7_xA0_Image_00000136393692654888531960000000810049184125817996_">
	<circle class="st0" cx="504.3" cy="504.3" r="476.9"/>
	<g>
		<g>
			<path class="st1" d="M443.6,215.8c30.9-1.1,58.9,3.4,86.4,10.5c19.7,5.1,38.8,12.4,56.5,22.7c3.4,2,7,3.8,9.9,6.4
				c3,2.7,6.6,3.9,10.4,4.2c9.9,0.8,19.6,2.9,29.2,5c17.9,3.8,35.2,9.3,51.7,17.4c21.1,10.4,38.9,24.7,53.3,43.5
				c7.2,9.5,13.8,19.3,19,30c1.2,2.4,2.6,3.5,5.1,4.1c11.3,2.5,22.7,5,33.3,9.7c21.2,9.4,40.9,21,57.7,37.3
				c11.2,10.8,20,23.1,27.3,36.8c7.2,13.5,10.8,27.8,12.9,42.7c1.3,8.7,0.5,17.3-0.6,26c-0.4,3-0.1,5.3,2.2,7.6
				c12.9,13.1,19,29.4,21.1,47.2c1.1,9.3,0.8,18.9-0.9,28.2c-1.9,10.4-3.3,20.9-6.1,31.1c-1,3.4,0.4,7.5,0.4,11.3
				c0.2,16.7-7.1,30.1-17.5,42.6c-6.4,7.7-14.9,11.9-22.9,17c-5.9,3.7-13.1,4.9-20,5.5c-8.4,0.7-16.9,0.9-25.1-2.1
				c-3.6-1.3-7.4-1.8-11-3.1c-17.9-6.6-31.5-19.2-44.5-32.4c-12.2-12.4-23.3-25.9-36.9-36.9c-11.7-9.5-24.8-15.5-39.7-18.1
				c-11-2-21.4-6-30-13.4c-3.8-3.2-7.9-1.9-11.8-1.4c-14.2,1.9-27.3-1.5-39.9-7.5c-2.7-1.3-5.3-2.4-8-1c-14.4,7.2-29.8,8.1-45.5,7.2
				c-10.3-0.6-19.8,2.8-28.6,7.3c-10.4,5.3-21,10-32.1,12.9c-10.9,2.8-22.1,5.7-33.6,4.7c-4.3-0.4-6.9,1.6-8.2,4.9
				c-5.9,15-16.4,27.1-25,40.4c-1.6,2.4-1.7,4.8-0.8,7c5.3,13.6,8.9,27.7,12.1,42c1.2,5.4,6,8.5,9.4,12.5
				c6.6,7.8,10.6,16.8,12.8,26.5c1.3,5.7,1.7,11.8,1.3,17.8c-1.1,15.6-8.6,26.9-21.7,35c-18.7,11.6-39,11.6-59.5,7.4
				c-13.6-2.8-27.1-5.7-40.7-8.6c-7.3-1.6-14.3-4.1-20.8-8c-2.5-1.5-5.6-2-8.3-3.2c-10.8-4.4-20.8-10-30.4-16.6
				c-5.5-3.8-12.1-5.5-18.5-6.9c-9.6-2.2-19.1-5-27.6-9.7c-7.5-4.2-15-8.8-21.4-15c-9.9-9.4-21.6-15.8-34.2-21.3
				c-19.5-8.4-35.7-21.7-49.5-37.9c-8-9.3-14.5-19.5-20.5-30.2c-6.2-11-10.6-22.6-13.4-34.5c-2.9-12.2-4.8-24.8-3.8-37.4
				c0.3-3.9,1.4-7.7,2.1-11.6c0.7-4.1-0.3-7.3-2.3-10.3c-4.7-7.4-6.9-15.7-9.7-23.9c-3-8.6-4.4-17.6-5.5-26.6
				c-1-8.3-1.8-16.6,0.3-24.7c2.2-8.2,2-16.7,3.8-24.9c4.5-19.9,10-39.2,19.4-57.6c9.4-18.3,20.8-35.1,33.8-50.7
				c9.9-11.9,21.3-22.5,33.5-32.3c10.1-8.1,20.6-15.7,31.8-21.9c17.5-9.7,36-17.5,55.8-21.8c10.5-2.3,21.2-3.7,31.7-5.8
				c1.4-0.3,2.3-0.8,3.3-1.9c12.7-14.8,29.5-23.3,46.9-31.2c19.8-9,40.3-14.9,61.5-18.6C417.1,216.6,431.4,214.6,443.6,215.8z"/>
		</g>
	</g>
</g>
<g id="Layer_6_xA0_Image_00000093143644372479245110000014675891935620845710_">
	<g>
		<g>
			<path class="st2" d="M461.6,197.7c15.4,3.2,33.4-1.8,51.3,0.9c3.9,0.6,8,0.9,11.8,2c29.7,8.6,60.2,15.2,84.8,35.8
				c1.8,1.5,3.7,1.8,6,1.5c7.3-0.9,14.2,0.4,20.9,3.4c8,3.6,16.7,5.6,25.1,8c9,2.7,17.8,6.4,27.2,7.8c1.3,0.2,2.7,0.7,3.7,1.4
				c9.1,6.5,20,9.9,28.4,17.3c1.4,1.2,3.1,2,4.6,2.9c1.4,0.8,3,1.5,4.4,2.3c9.6,5.6,26.7,27.1,29.9,37.7c1.9,6.4,6.3,11.7,8.5,18
				c0.8,2.1,2.7,2.6,5,2.2c9.8-1.5,18.9,0.7,27.1,6.1c4.6,3,9.6,4.6,14.9,5.4c6.8,1,13.2,3.1,19.1,6.9c1.9,1.3,4.1,2.2,6.3,2.9
				c9.5,3.2,32,19.3,36.6,28.1c5.2,10,12.3,19,15.1,30.2c0.6,2.2,2.1,3.7,3.5,5.4c2.9,3.5,5.6,7.4,6.3,11.8
				c2.4,14.6,6.3,28.9,2.3,44.3c-1.6,6.1,1,14,7.5,19.3c14.3,11.7,20.8,30.4,14,48.1c-0.8,2.1-1.1,4.2-0.9,6.3
				c0.5,7.7-1,14.9-4.6,21.7c-1.1,2.1-1.1,3.9-0.4,6.2c2.3,7.3,3.2,15.1,0.1,22.1c-6.2,13.9-9.9,30.1-24.5,38.2
				c-15.7,8.7-32.3,10.6-49.9,3.9c-10.9-4.1-20.3-10.5-29.9-16.6c-5.2-3.3-9.6-7.3-12.5-12.6c-4.8-8.7-11.7-15.5-18.3-22.7
				c-7.2-7.9-15.8-14.8-21.1-24.4c-1.2-2.2-2.8-2.5-4.9-2.4c-7.9,0.6-14.9-2.1-22.1-4.8c-8.5-3.2-17-6.4-25.6-9.5
				c-6.2-2.2-12.3-4.2-17.3-8.6c-1.8-1.6-3.6-1.9-5.9-1.5c-19.1,2.9-37.8,1.3-56.2-4.5c-2.5-0.8-4.8-0.9-7.3-0.2
				c-16.6,4.5-33.5,5.4-50.5,3c-2.7-0.4-4.7-0.1-6.9,1.5c-26.4,19.4-55.9,27.4-88.4,23.8c-2.7-0.3-3.8,0.6-4.8,3
				c-7.5,18.1-18.7,33.7-33.6,46.5c-3.6,3.1-3.5,7.4-5.2,11c-3.2,6.6-2.5,11.6,3,17.3c8.3,8.7,11.4,20.2,10.8,32.3
				c-0.2,3.5,1,5.5,3.6,8c9.5,8.9,18.6,18.4,21.4,31.8c3.8,18.1-5.4,36.5-22.6,43.8c-9.6,4.1-19.5,8.5-30.3,6.9
				c-12.4-1.9-25.2-3.4-35.6-11.7c-1.4-1.1-2.8-1.6-4.6-1.6c-13.5,0.1-25.2-5.6-36.5-12.1c-2.9-1.7-5.8-3-9.2-3.5
				c-8.2-1.1-15.9-4.1-22.2-9.4c-8.2-7-18.5-9.6-28.1-13.3c-7.4-2.8-14.6-5.6-20.6-10.8c-5.8-5.1-13.3-7.6-19.2-12.6
				c-8.9-7.4-18.5-12.9-29.4-17.2c-27.6-10.9-47.1-31-62.1-56.2c-16.7-28-23-57.8-17.2-90c0.5-2.7,0.1-5.1-1.3-7.6
				c-20.1-37.9-20.8-76.3-2.8-115.1c3.3-7.2,5.2-14.7,7.4-22.2c7.3-24.4,20.8-44.8,40.7-60.9c4.2-3.4,7.4-7.6,10.6-11.9
				c19.1-25.2,44.3-40.8,75.2-47.1c5.4-1.1,10.7-2.5,15.7-4.7c9.1-3.9,18.6-6.4,28.3-7.6c4-0.5,7-2,9.9-5
				c23.5-24.3,52.2-37.3,86-38.7c3.4-0.1,6.5-0.8,9.7-2C429.7,200.5,444.2,197.9,461.6,197.7z"/>
		</g>
	</g>
</g>
<g id="Layer_1_xA0_Image_00000000218473733773656310000011312083867590302347_">
	<g>
		<g>
			<path class="st3" d="M909.4,587.8c-0.7,7.2-2.7,19.1-5.3,31.1c-1.2,5.9-2.4,11.5-1,17.6c1.5,6.9-0.9,13.2-3.8,19.4
				c-6.5,14.1-16.6,25.2-30.6,31.5c-7.6,3.4-16.5,5-24.9,5.1c-17.8,0.1-33.6-7-46.9-18.4c-11.8-10.1-22.4-21.7-33.2-32.9
				c-12.7-13.1-25.4-26.2-42.5-33.6c-7.2-3.1-14.9-5.4-22.6-7.1c-12.4-2.7-23.4-7.9-32.9-16.2c-1-0.8-3.1-1-4.4-0.7
				c-15.4,3.8-30.1,2.4-44-5.4c-5.7-3.2-11.1-2.4-16.6-0.3c-9.9,3.8-20,6.6-30.8,6.4c-5.2-0.1-10.5-0.6-15.7-0.2
				c-12.3,0.8-23.1,6.3-34.1,11.2c-15.8,7-32,12.3-49.4,13.2c-3.9,0.2-8,0.3-11.8-0.7c-4-1.1-5.3,0.7-6.9,3.6
				c-5.4,10.2-10.8,20.5-16.7,30.5c-3.6,6.2-8,11.9-12.3,17.7c-3.7,5.1-2.5,10.3-0.9,15.6c3.1,10.4,7.7,20.6,9.1,31.2
				c1.5,11.2,7.6,18.7,14.1,26.7c7.4,9.1,11.9,19.7,11.7,31.7c-0.1,12.9-4.7,23.4-16,30.8c-12.7,8.4-26.8,10-41.1,8.5
				c-10.1-1.1-19.9-4.5-29.8-6.7c-3.2-0.7-6.5-1.2-9.8-1.3c-12.2-0.4-22.8-5.9-33.9-10.2c-14.3-5.6-27.4-13.4-40.6-21.2
				c-4.1-2.5-9.2-3.7-14-4.7c-21.6-4.4-39.7-15.4-55.4-30.3c-7.6-7.2-16.9-10.5-26-14.6c-18.9-8.5-34.8-21-48.6-36.5
				c-11-12.3-19.3-26.2-25.5-41.3c-6.8-16.6-10.1-33.9-9.9-51.8c0.1-4.5,0.8-9.2,2.2-13.5c1.4-4.5-0.2-8.1-1.9-11.8
				c-8.1-17.2-15-34.9-15.9-54.1c-0.4-7.9,0.8-15.9,1.9-23.7c1.4-10.4,3.3-20.7,5.2-31.1c3.2-17.7,10.2-34.1,19.3-49.3
				c8.4-14,17.7-27.5,27.8-40.3c13-16.4,28.7-30,45.7-42.3c14.9-10.8,31-19.1,48.1-25.7c19.5-7.5,40-10.9,60.8-13.2
				c8.6-13.5,21.4-22.1,35.7-28.5c12.6-5.6,25.4-11,38.5-14.9c13.2-4,26.9-7,40.6-8.7c15.3-1.9,30.9-2.5,46.4-2.3
				c12.2,0.2,24.5,2.3,36.7,4.2c10.4,1.6,20.9,3.5,31.1,6.4c22.3,6.2,44,14.1,63,27.6c6.1,4.3,12.4,4.8,19.1,6.1
				c14.6,2.8,29,6.5,43.4,9.8c13.9,3.2,26.7,9.3,39,16.4c20,11.4,36.2,26.8,48.2,46.5c4.7,7.7,9.1,15.5,14.5,24.6
				c4.1,1,10.1,2.3,16,3.8c30.4,7.8,57.1,22.1,79.6,44.3c16.7,16.4,27.6,35.9,33.2,58.4c3,12,3.1,24.2,1.6,36.5
				c-0.4,3.5-0.1,7.2-0.1,10.4c4.8,6,10,11.6,14,17.9c6.5,10.4,9.4,21.9,9.4,34.3 M350.8,784.6c0.4,0,0.8,0,1.2,0
				c-0.1-0.4-0.3-0.7-0.4-1.1c-1.2-3.1-2.3-6.2-3.5-9.3c-2.6-7.1-3.5-14.1-0.1-21.3c7.3-15.7,18.5-27.5,34.2-34.8
				c1.5-0.7,3.2-0.8,5.2-1.3c-0.4,1.1-0.4,1.5-0.6,1.7c-0.6,0.5-1.3,1-2,1.5c-10.6,8.2-20.2,17.4-26.1,29.7
				c-6.8,14.3-4,27.8,8.3,35.1c15.9,9.5,33.4,14.4,52,12.7c26-2.3,38.9-23.3,30-48c-4.6-12.8-12.9-23.1-22.7-32
				c0.3-1.5,1.1-3,0.8-4.3c-3.1-15.8-7.8-31-18.3-43.7c-10.2-12.5-24-19.2-39-24c-4.8-1.5-9.6-3-14.4-4.5
				c23.3-4.2,41.9,4.8,57.8,20.8c1.5-3.3,3-5.9,4-8.7c0.5-1.5,0.7-3.7,0.1-5.1c-9.6-20.5-23.7-36.9-44.6-46.6
				c-31.5-14.6-63.9-13.9-96.5-4.2c-18.3,5.4-33.9,15.3-45.7,30.3c-14.3,18.1-19.8,39.2-19,61.9c0.3,9.6,1,19.6,7.7,27.4
				c8.6,10,18.5,18.6,30.2,25.1c3.2,1.8,6.7,3.2,10,4.8c0.3-0.3,0.7-0.7,1-1c-7.8-10.1-12.4-21.4-11.9-34.1
				c0.5-12.8,4.4-24.3,14.7-33.2c-14.4,28.4-11,53.7,13,75.4c-7.7-14.8-13.2-30.1-11.2-47.2c2-17.3,9-32.2,21-44.8
				c12.6-13.3,33.2-23.7,43.7-21.9c-2,0.9-3.4,1.7-4.8,2.3c-34.6,14.7-62.7,55.5-42.5,97.9c3.7,7.8,6.6,16.6,14.4,21.1
				c13.3,7.6,27.1,14.2,40.7,21.2c0.3-0.4,0.6-0.8,0.9-1.1c-3.4-8.1-8.2-16-3.5-26.5c1,3.9,1.6,6.6,2.5,9.2
				C340,771.8,343.5,779.4,350.8,784.6z M192.8,706.5c0.4,0,0.8,0.1,1.1,0.1c-0.1-0.3-0.3-0.6-0.4-0.9c-0.8-2.2-1.4-4.4-2.4-6.5
				c-8.4-18.4-10.8-37.8-7.3-57.4c4.9-27.7,19.1-49.8,43-65.2c4.3-2.7,9.1-4.7,13.6-7c0.2,0.4,0.5,0.9,0.7,1.3
				c-0.7,0.6-1.4,1.2-2.1,1.8c-10.5,8.4-20.5,17.4-28.2,28.6c-11,15.9-17,33.6-18.5,52.7c-1,13.6-0.3,27.3,5.2,40.1
				c1.2,2.8,3.1,5.3,4.6,8c0.5-0.2,1-0.4,1.4-0.6c-0.1-1.6-0.1-3.2-0.3-4.8c-2.1-16.7-1.8-33.1,4.5-49.3c7.4-18.9,20.7-32.5,37-43.5
				c11.3-7.6,23.7-13.2,37-16.8c26.7-7.2,53.2-7.6,79.4,1.9c22.5,8.2,40.4,22.6,53.4,42.8c2.6,4,5,8.1,7.5,12.2
				c10.3-10.5,11.5-13.1,7.7-24.8c-4.8-14.6-14.2-26.2-24.7-36.9c-6.4-6.5-13.2-12.6-19.8-18.8c0.4-0.3,0.7-0.7,1.1-1
				c23.5,14,40.6,33.8,51.3,60.1c7.4-12.6,9.8-27.1,4.9-38.1c-4.9-11-10.3-22-17.5-31.6c-20.5-27.4-47.8-46.7-77.7-62.7
				c-20.5-10.9-42.1-18.6-64.6-24c-1.9-0.5-3.7-1.3-5.5-2c35.9-0.9,67.3,12.2,97,30.3c30,18.3,54.9,41.9,71,73.9
				c-7.2-59.8-39.4-105.6-81.6-146c1.5,0.3,2.7,0.7,3.7,1.5c8.6,7,17.6,13.6,25.7,21.2c24.2,22.7,41.6,49.9,51.7,81.6
				c6,19,8.3,38.6,9.2,58.4c0.4,8.6,2.1,10.5,10.6,12.4c2.7,0.6,5.6,0.9,8.4,0.8c15.9-0.7,30.7-5.5,45.1-11.6
				c14.4-6.1,21.6-18.2,22.8-33.1c0.9-11.3,0.1-22.7-0.5-34.1c-2.1-37.5-12.3-72.8-30.4-105.7c-8.9-16.1-19.6-31.2-31.9-44.9
				c-9.8-10.9-20.1-21.5-30.2-32.2c18.2,9.1,32.2,23.3,46.5,37.6c0-1.6-0.2-3.1-0.9-4.4c-10.5-18.1-24.2-33.7-39.9-47.5
				c-20.4-18-43.4-31.4-69.4-39.9c-19.5-6.3-39.5-10.4-59.8-12.6c-4.7-0.5-7.9,2.1-10.3,6.4c26.4,7,51.7,15.2,75.8,27
				c-0.9,0.3-1.7,0.4-2.5,0.2c-12.4-3.4-24.7-7.5-37.3-10.2c-11.3-2.4-22.8-4-34.4-4.7c-13.6-0.8-27.4-1.7-40.9,2.1
				c-31.5,9-60.5,22.9-86.7,42.4c-20.5,15.3-38.5,33.1-52.4,54.7c-4.4,6.8-9.4,13.4-12.6,20.7c-4,9.2-6.4,19-9.5,28.5
				c0.5,0.4,1.1,0.8,1.6,1.3c18.4-18.4,39.8-31.5,64.9-38c25-6.5,50.2-7.4,75.5-3.2c25.1,4.2,48.7,12.7,69.4,28
				c-1.3,0.2-2.4,0.1-3.4-0.4c-24.7-11.6-50.5-19.3-77.8-21.2c-40.6-2.8-78.1,5.3-110.1,31.8c-20.5,17-31.7,39-33.5,65.8
				c-1.1,15.5,4.2,29.3,8.9,43.4c1.2,3.5,2.5,6.9,4.1,11.1c6.8-24.6,16.9-46.1,35.6-62.6c21.7-19.1,49.2-31,63.9-28.2
				c-5.6,1.9-11.2,3.6-16.7,5.8c-55.9,21.7-85.4,79.8-76.7,134.8c2,12.9,6.8,25.4,11.3,37.7c3.3,8.9,8.2,17.1,12.4,25.7
				c0.4-0.2,0.8-0.4,1.1-0.6c-3.3-14.3-7.8-28.5-9.6-43.1c-1.9-14.5-0.1-29.1,6.4-42.7c0.4,2.1,0.3,4.2,0.1,6.2
				c-0.5,4.4-1.2,8.9-1.6,13.3c-1.9,22.7,3,44.1,12.6,64.7C160.6,685.3,172.4,700.2,192.8,706.5z M333.8,260.7
				c0.1,0.4,0.2,0.9,0.3,1.3c1.1,0.2,2.1,0.4,3.2,0.6c8.7,1.3,17.6,2,26.2,3.8C428,280.6,475.7,317.3,506,375.4
				c11.9,22.7,20.1,47.4,29.4,71.4c8.4,21.7,13,44.4,13.3,67.7c0.2,14.4-1.2,28.9-2,43.3c-0.7,13.6,5,16.9,16,17.2
				c14.3,0.4,28.6-1.9,42.1-7.2c2.7-1.1,5.5-3.5,6.7-6.1c9.5-19.9,15.7-41,19-62.8c9.1-59.4,5-117.8-16.4-174.3
				c-5.1-13.4-12.4-26.1-19.9-38.4c-11.7-19.2-30.6-29.1-51.4-35.7c-62-19.6-124-18.5-185.8,0.5C349,253.6,341.5,257.5,333.8,260.7z
				 M617.2,567.4c8.9,6.5,18.9,9.3,29.5,9.6c12.4,0.4,23.1-3.1,32.4-12.2c18.1-17.7,32.7-37.6,43.2-60.5
				c14.2-31,20.4-64.1,25.8-97.5c4.7-28.5-5.2-52-22.6-73.1c-10.2-12.4-23.3-21.7-37.4-29.5c-25.9-14.4-54.4-21.2-82.8-28.7
				c-0.6-0.1-1.2,0.2-2,0.3c3.6,7.8,7.2,15.4,10.6,23.1c27,60.9,36.3,124.4,27.8,190.4C638.2,516.4,631.7,542.8,617.2,567.4z
				 M757.1,376.4c0,1.8-0.1,3,0,4.1c1.3,20.9-0.1,41.5-4.7,61.9c-11.1,49.3-34.9,92-68.5,129.4c-5.3,5.9-5.4,9,1.8,12
				c8.5,3.6,17.6,5.7,26.5,8.1c8.2,2.2,17.3,1.3,24.1,7.9c1,0.9,2.7,1.1,3.3,1.3c27.8-62,76.5-89,142.7-88.5
				c0.3-4.4,1.2-9.1,0.7-13.7c-1-9-1.4-18.5-4.4-26.8c-11.1-30.6-32-53.6-59.2-71.2C800.5,388.7,779.9,380.7,757.1,376.4z
				 M897.9,604.4c0.4-0.9,0.7-1.2,0.7-1.5c0.4-3.1,0.8-6.3,1.3-9.4c3.6-25.2-0.7-48.3-17.3-68.4c-2.4-2.9-4.8-4.2-8.5-3.7
				c-7.7,1-15.6,1.4-23.3,2.8c-36,6.2-65.9,22.3-86.2,53.7c-6.5,10.1-11.5,20.8-15.1,32c9.6,11,18.8,21.7,28.5,32.8
				c9.2-24.8,26.4-40.7,50.8-48.5C853.1,586.5,876.3,589.9,897.9,604.4z M895.6,624.5c0.5-2.7,1.6-4.7,1-5.8
				c-1.7-3.5-3.4-7.4-6.1-9.9c-9.1-8.5-20.9-10.6-32.7-10.6c-35.2-0.1-59.5,18.2-77.8,48.1c6.3,6.6,12.1,14,19.2,19.7
				c14.1,11.1,29.9,18.6,48.5,17.8c23.2-1,41.5-16,46.4-37.6c1.4-6.4,0.4-12-3.6-17.3c-6.7-8.8-15.1-14.4-26.1-15.9
				c-2.3-0.3-4.5-0.8-7.2-1.2C869.1,607.2,881.9,611.2,895.6,624.5z"/>
			<path class="st3" d="M336.8,628.9c18.9-11.4,64.7,3,69.5,21.9C385.8,634.7,362.7,628.7,336.8,628.9z"/>
			<path class="st3" d="M699.4,572.7c21.3-28.8,37.9-60.2,51.7-94.1C756.4,495.7,718.8,563.7,699.4,572.7z"/>
			<path class="st3" d="M878.3,532.3c-29.9,3.3-57.6,13.2-84.4,26.4C804.7,543.9,850.1,524.3,878.3,532.3z"/>
		</g>
	</g>
</g>
</svg>
